<?xml version="1.0" encoding="UTF-8"?>
<svg width="231px" height="78px" viewBox="0 0 231 78" version="1.1" xmlns="http://www.w3.org/2000/svg" xmlns:xlink="http://www.w3.org/1999/xlink">
    <!-- Generator: Sketch 52.5 (67469) - http://www.bohemiancoding.com/sketch -->
    <title>Artboard Copy 6</title>
    <desc>Created with Sketch.</desc>
    <g id="Artboard-Copy-6" stroke="none" stroke-width="1" fill="none" fill-rule="evenodd">
        <rect fill="#FFFFFF" x="0" y="0" width="231" height="78"></rect>
        <text id="HO.mx" font-family="Avenir-Medium, Avenir" font-size="25" font-weight="400" fill="#000000">
            <tspan x="108" y="45">HO.mx</tspan>
        </text>
        <g id="noun-desk-1577061" transform="translate(37.000000, 16.000000)" fill="#8B572A" fill-rule="nonzero">
            <path d="M6.98736776,15.2546658 C6.9859986,15.2514338 6.98771013,15.2482018 6.9859986,15.245293 C6.98360241,15.2417378 6.97846773,15.2410914 6.97572908,15.2378594 C6.96922516,15.2301026 6.96409075,15.2252549 6.95553266,15.2197601 C6.95108265,15.2165281 6.9500557,15.2103874 6.94526314,15.2087715 L6.81518306,15.1476866 C6.81141763,15.1457474 6.80765219,15.1480098 6.80422913,15.146717 C6.79293257,15.1425154 6.78197864,15.1444546 6.76999855,15.1444546 C6.75664878,15.1447778 6.74432517,15.143485 6.7323442,15.1489794 C6.72926343,15.149949 6.725498,15.1486562 6.72241732,15.149949 L6.31507143,15.3700526 L4.81333182,14.5523547 L4.86570561,14.5226198 C4.86947105,14.5203573 4.86947105,14.5155093 4.87357877,14.5129235 C4.88384829,14.5051667 4.88864086,14.495794 4.89514398,14.4848053 C4.9016479,14.4744629 4.90746759,14.4657364 4.90883639,14.453778 C4.90917877,14.4495764 4.91362878,14.4466676 4.91362878,14.4431121 L4.91362878,14.1606311 C4.91362878,14.1561063 4.90917877,14.1535207 4.90883639,14.1499652 C4.90780953,14.1412386 4.90541333,14.1350977 4.90130561,14.1266947 C4.89925179,14.1221698 4.90233256,14.117322 4.89925179,14.1131205 C4.8968556,14.1095652 4.89172093,14.1095652 4.88898227,14.1060101 C4.8835053,14.099546 4.87905538,14.0953441 4.87289402,14.0901729 C4.86912867,14.0872641 4.86912867,14.0827393 4.86502086,14.0804767 L4.73459902,14.0067872 C4.72980672,14.0038783 4.72432949,14.0064639 4.71953693,14.0045248 C4.7078986,14 4.69728644,14 4.68462107,14 C4.6719557,14 4.66100177,14 4.64970521,14.0045248 C4.64422824,14.0064639 4.63943568,14.0042016 4.63464312,14.0067872 L4.04826625,14.3390359 C4.04450081,14.3412984 4.04450081,14.3461463 4.04039309,14.3487322 C4.03354688,14.3539034 4.02909652,14.3584284 4.02361956,14.3655382 C4.02053879,14.3690935 4.01540411,14.3690935 4.01335003,14.3732951 C4.01129622,14.3774967 4.01335003,14.3820216 4.01129622,14.3858996 C4.00821545,14.3936564 4.00581925,14.3997974 4.0047923,14.4082004 C4.00445001,14.412402 4,14.4153108 4,14.4188663 L4,14.6893831 C4,14.6939079 4.00445001,14.6968167 4.00547696,14.7003718 C4.0068462,14.7123301 4.01300774,14.7213801 4.01882673,14.7317226 C4.02567303,14.7423885 4.03046506,14.7517613 4.04141899,14.7591946 C4.04484214,14.7621034 4.04518442,14.7669514 4.04929215,14.7688908 L6.26540308,15.9873955 C6.28046517,15.996122 6.29792223,16 6.3150384,16 C6.33215369,16 6.34824282,15.9957984 6.36398843,15.9873955 L6.9503653,15.6677479 C6.95413065,15.6654855 6.95481531,15.6606375 6.95823837,15.6580517 C6.9691923,15.6502949 6.97432662,15.6412457 6.98117327,15.6299335 C6.98767718,15.6195911 6.99281159,15.6115107 6.99452304,15.5992297 C6.9955499,15.5950281 7,15.5917961 7,15.5875949 L7,15.2918674 C7,15.2863729 6.99452304,15.2824946 6.99349608,15.2779696 C6.99178455,15.2692431 6.9907576,15.2627795 6.98733446,15.2546991 L6.98736776,15.2546658 Z M4.71718823,14.3235154 L4.71718823,14.3900951 L4.6175776,14.446655 L4.55630396,14.4153041 L4.71718823,14.3235154 Z M6.21647417,15.7462212 L4.1971834,14.6356916 L4.1971834,14.578162 L6.21647417,15.6660209 L6.21647417,15.7462212 Z M6.80285104,15.5345239 L6.41261957,15.7471892 L6.41261957,15.6647732 L6.80285104,15.4521079 L6.80285104,15.5345239 Z" id="Shape"></path>
            <path d="M6.98873308,18.2705975 C6.98667903,18.2663981 6.98907541,18.2618755 6.98667903,18.2579996 C6.98428256,18.2544462 6.9791473,18.2538002 6.97640833,18.2505698 C6.97093074,18.2434632 6.96613763,18.2389411 6.95963289,18.2337726 C6.95586702,18.2308654 6.95586702,18.2263429 6.95175883,18.2240815 L6.8213221,18.1504308 C6.81687158,18.1481696 6.81139407,18.1501077 6.80694364,18.1484926 C6.79564579,18.1439701 6.78537596,18.1439701 6.77270915,18.1433241 C6.76004233,18.1433241 6.74874448,18.1430011 6.73642034,18.1475235 C6.73196982,18.1494617 6.72649232,18.1472005 6.72272637,18.1494617 L6.31533397,18.3694495 L4.81342286,17.5521818 L4.86580263,17.5224634 C4.8695685,17.5202021 4.8695685,17.5153567 4.8736766,17.5127722 C4.8839473,17.5050195 4.88874041,17.495975 4.89524428,17.4846688 C4.90174894,17.4743319 4.90756842,17.4656099 4.90893825,17.4536579 C4.90928058,17.4494585 4.91373119,17.4471972 4.91373119,17.4429975 L4.91373119,17.1606652 C4.91373119,17.1564658 4.90928058,17.1535585 4.90893825,17.1500049 C4.90791127,17.1416063 4.90585713,17.1357911 4.90243368,17.1277159 C4.90037954,17.1235165 4.90277601,17.1183481 4.90037954,17.1147946 C4.89798307,17.1112412 4.89250548,17.1105952 4.89010884,17.1070419 C4.88463125,17.1005812 4.87983814,17.096059 4.8733334,17.0908905 C4.86990995,17.0886293 4.86990995,17.0837838 4.86580175,17.0815227 L4.73536502,17.0075487 C4.73091441,17.0052875 4.72612148,17.0075487 4.72201373,17.0056106 C4.71037407,17.0004421 4.69941889,17.000119 4.68675208,17.000119 C4.6730581,16.999796 4.66176025,16.999796 4.64943611,17.0046414 C4.64464317,17.0065796 4.63950809,17.0043184 4.63574214,17.0065796 L4.0492983,17.3267039 C4.04553253,17.3289652 4.04484778,17.3341337 4.04142433,17.3363951 C4.0338926,17.3415636 4.02978468,17.3460862 4.02430709,17.3525464 C4.02122596,17.3557767 4.0160907,17.3560998 4.01403639,17.3599762 C4.01163992,17.3641755 4.01403639,17.3686981 4.01198225,17.3725741 C4.0085588,17.3803268 4.00650466,17.3864645 4.00547759,17.3948631 C4.00445061,17.3993855 4,17.4022928 4,17.4064918 L4,17.7014187 C4,17.7059412 4.00445061,17.7091714 4.00547759,17.7130474 C4.00684707,17.7249994 4.01300932,17.733398 4.01882888,17.743735 C4.02567587,17.7547179 4.03046854,17.7640857 4.0417664,17.7718384 C4.04518993,17.7747458 4.04553226,17.7792682 4.04964045,17.7815296 L6.26600446,18.9874021 C6.28106827,18.996124 6.29784284,19 6.31496009,19 C6.33207733,19 6.3481683,18.9958006 6.36391571,18.9874021 L6.95035955,18.6679228 C6.95412541,18.6656615 6.95481007,18.6608161 6.9582336,18.6582316 C6.96918878,18.6504789 6.97432369,18.6414344 6.98117112,18.6301282 C6.98767569,18.6197913 6.99281077,18.6117152 6.99452241,18.5994406 C6.99554948,18.5949182 7,18.5920109 7,18.5878119 L7,18.3048346 C7,18.3003122 6.99554948,18.2977279 6.99520715,18.2941742 C6.99452241,18.2848064 6.99212603,18.2783454 6.98870249,18.2705927 L6.98873308,18.2705975 Z M4.71759318,17.3195939 L4.71759318,17.3900145 L4.62036378,17.4452529 L4.55394823,17.4077817 L4.71759318,17.3195939 Z M6.21705033,18.7470916 L4.19752896,17.648145 L4.19752896,17.5677099 L6.21705033,18.6773243 L6.21705033,18.7470916 Z M6.80349416,18.5338931 L6.41321813,18.7467691 L6.41321813,18.6769944 L6.80349416,18.4644409 L6.80349416,18.5338931 Z" id="Shape"></path>
            <path d="M2.01854135,16.0482737 C2.02516357,16.0594709 2.0297989,16.0690216 2.04072588,16.0769256 C2.04403694,16.0798896 2.04436811,16.0845004 2.04834136,16.0868059 L8.85729135,19.9871562 C8.8718598,19.9960484 8.88808454,20 8.90463986,20 C8.93642649,20 8.96059789,19.9815572 8.97781522,19.9575153 C8.98013302,19.9545513 8.9850997,19.9555393 8.98675532,19.952246 C8.99105974,19.9446712 8.98774867,19.9367675 8.99006647,19.9285338 C8.99238426,19.9199712 9,19.9143722 9,19.9048216 L9,17.0076763 C9,17.0030656 8.99536449,17.0001016 8.99470223,16.9958206 C8.99337779,16.9839641 8.98741784,16.9750727 8.98178923,16.964534 C8.97516693,16.9536656 8.97053168,16.9437861 8.95960471,16.9358821 C8.95629356,16.9329181 8.95596247,16.9283073 8.95198914,16.9260018 L2.14303915,13.0131736 C2.13542358,13.0085629 2.12747726,13.0121857 2.11919918,13.0098803 C2.11059051,13.0075749 2.10496131,13 2.09535921,13 C2.09072361,13 2.08774364,13.0042814 2.08343964,13.0052694 C2.07152008,13.0065867 2.06257999,13.0125148 2.05198444,13.0181132 C2.04072689,13.0246999 2.03112479,13.0293104 2.02317813,13.0401788 C2.02019807,13.0434721 2.01556256,13.0438015 2.0132446,13.0477534 C2.00894018,13.0553282 2.01225124,13.0632319 2.00993353,13.0714656 C2.00761574,13.0800282 2,13.0856272 2,13.0951778 L2,16.0048853 C2,16.0094961 2.00430442,16.0124601 2.00529777,16.016741 C2.00662221,16.029256 2.01225107,16.0374889 2.0185422,16.0483573 L2.01854135,16.0482737 Z M2.1903841,13.2577806 L8.80895338,17.0622704 L8.80895338,19.7417272 L2.1903841,15.9503898 L2.1903841,13.2577806 Z" id="Shape"></path>
            <path d="M2.01854135,22.5850279 C2.02516357,22.5974994 2.0297989,22.6081369 2.04072588,22.6169405 C2.04403694,22.6202418 2.04436811,22.6253773 2.04834136,22.6279452 L8.85729135,26.9856945 C8.8718598,26.9955987 8.88808454,27 8.90463986,27 C8.93642649,27 8.96059789,26.9794583 8.97781522,26.9526804 C8.98013302,26.949379 8.9850997,26.9504795 8.98675532,26.9468113 C8.99105974,26.9383746 8.98774867,26.9295713 8.99006647,26.9204006 C8.99238426,26.9108636 9,26.9046274 9,26.8939899 L9,19.4641428 C9,19.4590074 8.99536449,19.455706 8.99470223,19.4509379 C8.99337779,19.437733 8.98741784,19.4278288 8.98178923,19.4160907 C8.97516693,19.4036192 8.97053168,19.3929817 8.95960471,19.3841781 C8.95629356,19.3808768 8.95596247,19.3757414 8.95198914,19.3731734 L2.14303915,15.0146728 C2.13542358,15.0099042 2.12747726,15.0135724 2.11919918,15.0110047 C2.11059051,15.008437 2.10496131,15 2.09535921,15 C2.09072361,15 2.08774364,15.0047687 2.08343964,15.0058691 C2.07152008,15.0073364 2.06257999,15.0139391 2.05198444,15.0201745 C2.04072689,15.0275108 2.03112479,15.032646 2.02317813,15.0447513 C2.02019807,15.0484195 2.01556256,15.0487863 2.0132446,15.0531881 C2.00894018,15.0616248 2.01225124,15.0704281 2.00993353,15.0795988 C2.00761574,15.0891358 2,15.095372 2,15.1060096 L2,22.5377348 C2,22.5428701 2.00463559,22.5461715 2.00529777,22.5509397 C2.00662221,22.5634112 2.01225107,22.5733153 2.0185422,22.5850534 L2.01854135,22.5850279 Z M2.1903841,15.2875867 L8.80895338,19.5246682 L8.80895338,26.713931 L2.1903841,22.4768495 L2.1903841,15.2875867 Z" id="Shape"></path>
            <path d="M48.8743141,18.5415431 L16.5356249,0.0336165477 C16.4967658,0.0108550074 16.4526082,0 16.4091604,0 C16.3657091,0 16.3215514,0.0112055159 16.282696,0.0336165477 L0.126464451,9.2875798 C0.0483936335,9.33240187 0,9.41504479 0,9.50503853 L0,10.4382339 C0,10.5264778 0.0466301489,10.6080647 0.122584785,10.653586 L0.268836437,10.7407792 L0.268836437,27.5472602 C0.268836437,27.6372539 0.317586385,27.7205961 0.396006282,27.7650685 L1.47200316,28.3775172 C1.51086222,28.3995777 1.55466627,28.4107833 1.59811492,28.4107833 C1.64156627,28.4107833 1.68537032,28.3995777 1.72422667,28.3775172 L6.45479658,25.6892691 L9.55717287,27.4573203 C9.59603193,27.4793808 9.63983598,27.4905863 9.68328462,27.4905863 C9.72673597,27.4905863 9.77089363,27.4793808 9.80974907,27.4569697 L19.6508972,21.8223881 L30.9661376,28.3047343 L30.9661376,45.1354191 C30.9661376,45.2254129 31.0148875,45.308755 31.0933074,45.3532275 L32.1693043,45.966734 C32.2081633,45.9887945 32.2519674,46 32.295416,46 C32.3388647,46 32.3830251,45.9887945 32.4218805,45.9663835 L48.6043382,36.7124202 C48.682409,36.6672476 48.7308027,36.584256 48.7308027,36.4946119 L48.731156,19.9821636 L48.8770549,19.8953209 C48.9533596,19.8501483 48.9999924,19.7682055 48.9999924,19.6799688 L48.9999924,18.7596822 C49.000699,18.6700381 48.9519488,18.5870455 48.8738807,18.5425731 L48.8743141,18.5415431 Z M16.4090157,0.36619626 L48.5460347,18.7584818 L32.5652473,27.8977006 L0.45445449,9.50451859 L16.4090157,0.36619626 Z M1.4962669,22.6122829 L1.4962669,27.9856415 L0.622645699,27.4876953 L0.622645699,10.7717549 L1.4962669,11.2697011 L1.4962669,22.6122829 Z M1.6986878,27.9856415 L1.6986878,22.7859235 L6.25046751,25.3982431 L1.6986878,27.9856415 Z M9.5813733,27.0649963 L6.50477102,25.3120054 L6.50441778,25.3120054 L1.69932934,22.5543728 L1.69932934,11.3847145 L9.58165311,15.8826982 L9.5813733,27.0649963 Z M9.78414689,27.0656966 L9.78414689,15.9982327 L19.4489466,21.5319646 L9.78414689,27.0656966 Z M32.1939659,45.5736231 L31.3203447,45.0760265 L31.3203447,28.3331929 L32.1939659,28.8311391 L32.1939659,45.5736231 Z M32.3458698,28.685566 L31.2698729,28.0720595 L31.2688131,28.0720595 L19.7012588,21.4453863 L9.73259716,15.7382826 L1.64851268,11.1254648 C1.64851268,11.1251146 1.64851268,11.1244142 1.64815935,11.1244142 L0.573880739,10.5119656 L0.35344517,10.3810045 L0.35344517,9.67821242 L32.4633336,28.070498 L32.4633336,28.7501798 L32.3460483,28.6853976 L32.3458698,28.685566 Z M48.3763965,36.4362869 L32.3965134,45.5746092 L32.3965134,28.9429343 L32.5148568,29.0077165 C32.5300472,29.0168208 32.5466502,29.0203223 32.5639604,29.0203223 C32.5812706,29.0203223 32.5982271,29.01577 32.6144765,29.0066659 L48.376411,20.0117742 L48.3763965,36.4362869 Z M48.6455857,19.6226344 L48.4258555,19.7532459 C48.4258555,19.7532459 48.4258555,19.7535961 48.4255022,19.7535961 L32.6653764,28.746695 L32.6653764,28.0708589 L48.6452595,18.9325366 L48.6455857,19.6226344 Z" id="Shape"></path>
        </g>
    </g>
</svg>